Coordinates
version=1
nRows=14
nColumns=24
inDegrees=yes

Units are S.I. units (second, meters, Newtons, ...)
Angles are in degrees.

endheader
time	pelvis_tilt	pelvis_list	pelvis_rotation	pelvis_tx	pelvis_ty	pelvis_tz	hip_flexion_r	hip_adduction_r	hip_rotation_r	knee_angle_r	ankle_angle_r	subtalar_angle_r	mtp_angle_r	hip_flexion_l	hip_adduction_l	hip_rotation_l	knee_angle_l	ankle_angle_l	subtalar_angle_l	mtp_angle_l	lumbar_extension	lumbar_bending	lumbar_rotation
      1.40700000	      4.26196686	     -0.69352926	     -5.96515773	      0.94002828	      0.97244352	      0.33523437	    -30.08880642	     -0.71248292	      2.78569037	     -2.60326309	     13.75170120	      5.46343134	      7.86639377	     18.96070716	     -1.96208913	     -0.90132956	      6.82931929	      2.47265180	     -6.82069796	     -0.89798630	    -18.17409247	      4.82190305	      9.64359175
      1.41116667	      4.23050991	     -0.48028681	     -5.99888245	      0.94621798	      0.97183242	      0.33472535	    -30.24755830	     -0.99457803	      2.66051953	     -2.88088323	     13.44960119	      5.45558694	      7.87793669	     19.13001497	     -1.66328861	     -0.77167270	      6.04220458	      2.24820367	     -7.05641857	     -0.90390860	    -18.06601590	      4.52862779	      9.63765470
      1.41533333	      4.14901825	     -0.28802606	     -5.99582263	      0.95243541	      0.97115561	      0.33413445	    -30.33961603	     -1.23644293	      2.48362605	     -3.19410827	     13.16075432	      5.56675552	      8.00099214	     19.31272495	     -1.37682161	     -0.35755643	      5.34744471	      1.73899061	     -7.76012510	     -0.89108384	    -17.91402595	      4.25558566	      9.65310495
      1.41950000	      4.11196044	     -0.06458690	     -6.01454697	      0.95870228	      0.97058645	      0.33358920	    -30.47410577	     -1.51805500	      2.33820790	     -3.50833275	     12.80334451	      5.52815043	      8.21311882	     19.44443000	     -1.05802209	     -0.03628191	      4.64269277	      1.23356386	     -8.40117921	     -0.84504003	    -17.81719682	      3.93850472	      9.65712290
      1.42366667	      4.05180728	      0.16579686	     -6.01929259	      0.96502606	      0.97002116	      0.33301243	    -30.59362183	     -1.79732853	      2.19497746	     -3.80028139	     12.42013916	      5.50358798	      8.43808367	     19.62155440	     -0.72613134	      0.21699031	      3.89523840	      0.66388018	     -8.98378631	     -0.78780157	    -17.66394249	      3.61673326	      9.67576437
      1.42783333	      4.00920413	      0.41848161	     -6.04325000	      0.97138092	      0.96952570	      0.33245779	    -30.70466467	     -2.10628324	      2.04691003	     -4.13210432	     11.92601254	      5.31967048	     12.85532469	     19.75553876	     -0.37425865	      0.46917116	      3.19243827	      0.00340515	     -9.64264561	      0.38416985	    -17.55271383	      3.26579964	      9.65884356
      1.43200000	      3.92376725	      0.66981805	     -6.04955264	      0.97777519	      0.96900575	      0.33185533	    -30.75930776	     -2.40336375	      1.87910282	     -4.49477312	     11.50064301	      5.32512301	     12.92579221	     19.95905187	     -0.01919984	      0.69383893	      2.44957148	     -0.70928822	    -10.28699292	      0.37891129	    -17.37229374	      2.92209919	      9.70334725
      1.43616667	      3.85687426	      0.94212277	     -6.06718881	      0.98420147	      0.96855780	      0.33126431	    -30.81707074	     -2.72551985	      1.71685852	     -4.88248378	     11.02773986	      5.24842828	     13.07897272	     20.12423170	      0.35673020	      0.92910367	      1.73880652	     -1.49452465	    -11.02445225	      0.39813180	    -17.22412983	      2.55400353	      9.71488313
      1.44033333	      3.78099341	      1.22024221	     -6.07909986	      0.99066988	      0.96814243	      0.33066398	    -30.86027888	     -3.04795559	      1.55911178	     -5.27661890	     10.53042451	      5.16333661	     13.28515496	     20.31998056	      0.73837745	      1.08406050	      0.98537963	     -2.30269745	    -11.67523472	      0.43246230	    -17.04401211	      2.17479179	      9.73206175
      1.44450000	      3.70360300	      1.51272912	     -6.09953246	      0.99716752	      0.96777506	      0.33006005	    -30.87179299	     -3.38785872	      1.38719844	     -5.72281297	      9.99231203	      5.05023672	     13.60313130	     20.50736985	      1.13326648	      1.25037815	      0.24647458	     -3.14486005	    -12.40046520	      0.49256068	    -16.87225831	      1.78138589	      9.76020982
      1.44866667	      3.62650508	      1.81185135	     -6.11217475	      1.00368718	      0.96745014	      0.32944996	    -30.87595913	     -3.72852442	      1.21989623	     -6.17956217	      9.42240870	      4.92738725	     14.01708605	     20.70601842	      1.53515055	      1.35614316	     -0.51485190	     -3.98936640	    -13.07005434	      0.56597870	    -16.68945816	      1.37558862	      9.77949563
      1.45283333	      3.58158645	      2.14144977	     -6.11552304	      1.01021121	      0.96719797	      0.32882030	    -30.89220098	     -4.09639532	      0.99647061	     -6.66381844	      8.77277263	      4.70071310	     19.99674378	     20.89128756	      1.97063395	      1.38474880	     -1.31302645	     -4.79972396	    -13.58789788	      1.74387080	    -16.55701785	      0.93526684	      9.74255527
      1.45700000	      3.46857577	      2.44265944	     -6.12487527	      1.01680753	      0.96693473	      0.32819442	    -30.83229913	     -4.43256774	      0.85615705	     -7.15487245	      8.08281687	      4.54836635	     20.07346125	     21.15787945	      2.36545140	      1.38055387	     -2.16248232	     -5.52136423	    -14.07863299	      1.71696987	    -16.32519551	      0.53446567	      9.81477306
      1.46116667	      3.39020111	      2.76023038	     -6.14081011	      1.02338713	      0.96675304	      0.32756816	    -30.77687727	     -4.79032871	      0.69951912	     -7.70346541	      7.40569947	      4.37729939	     20.23768314	     21.38764316	      2.77694346	      1.37435976	     -3.00857268	     -6.25686226	    -14.60138457	      1.69942754	    -16.14049452	      0.11122413	      9.84797808
